<svg width="40" height="38" viewBox="0 0 40 38" fill="none" xmlns="http://www.w3.org/2000/svg">
<path d="M13.0546 22.4199C14.7383 19.9055 16.843 16.7625 20 16.7625C23.157 16.7625 25.2617 19.9055 26.9454 22.4199C29.2606 25.7724 34.1014 28.7058 34.1014 32.6869C34.1014 36.8776 30.7339 38.7633 27.1559 37.7157C24.4198 36.8776 22.5256 36.0394 20 36.0394C17.4744 36.0394 15.5802 36.8776 12.8441 37.7157C9.26613 38.7633 5.89865 36.8776 5.89865 32.6869C5.89865 28.7058 10.7394 25.7724 13.0546 22.4199ZM10.5289 7.33361C10.5289 2.72391 12.4232 0 15.1592 0C17.8953 0 19.7895 2.72391 19.7895 7.33361C19.7895 11.9433 17.8953 14.6672 15.1592 14.6672C12.4232 14.6672 10.5289 11.9433 10.5289 7.33361ZM20.2105 7.33361C20.2105 2.72391 22.1047 0 24.8408 0C27.5768 0 29.4711 2.72391 29.4711 7.33361C29.4711 11.9433 27.5768 14.6672 24.8408 14.6672C22.1047 14.6672 20.2105 11.9433 20.2105 7.33361ZM0.847417 16.7625C-0.625859 13.2005 -0.204922 10.0575 2.32069 9.21939C4.84631 8.17173 7.37192 10.267 8.8452 13.8291C10.3185 17.3911 9.89754 20.5341 7.37192 21.3722C4.84631 22.4199 2.32069 20.3246 0.847417 16.7625ZM31.1548 13.8291C32.6281 10.267 35.1537 8.17173 37.6793 9.21939C40.2049 10.0575 40.6259 13.2005 39.1526 16.7625C37.6793 20.3246 35.1537 22.4199 32.6281 21.3722C30.1025 20.5341 29.6815 17.3911 31.1548 13.8291Z" fill="#00FE87"/>
</svg>
